HIERARCHY
ROOT Hips
{
	OFFSET -0.001795 -0.223333 0.028219
	CHANNELS 6 Xposition Yposition Zposition Zrotation Yrotation Xrotation 
	JOINT LeftUpLeg
	{
		OFFSET 0.069520 -0.091406 -0.006815
		CHANNELS 3 Zrotation Yrotation Xrotation
		JOINT LeftLeg
		{
			OFFSET 0.034277 -0.375199 -0.004496
			CHANNELS 3 Zrotation Yrotation Xrotation
			JOINT LeftFoot
			{
				OFFSET -0.013596 -0.397961 -0.043693
				CHANNELS 3 Zrotation Yrotation Xrotation
				JOINT LeftToe
				{
					OFFSET 0.026358 -0.055791 0.119288
					CHANNELS 3 Zrotation Yrotation Xrotation
					End Site
					{
						OFFSET 0.000000 0.000000 0.000000
					}
				}
			}
		}
	}
	JOINT RightUpLeg
	{
		OFFSET -0.067670 -0.090522 -0.004320
		CHANNELS 3 Zrotation Yrotation Xrotation
		JOINT RightLeg
		{
			OFFSET -0.038290 -0.382569 -0.008850
			CHANNELS 3 Zrotation Yrotation Xrotation
			JOINT RightFoot
			{
				OFFSET 0.015774 -0.398415 -0.042312
				CHANNELS 3 Zrotation Yrotation Xrotation
				JOINT RightToe
				{
					OFFSET -0.025372 -0.048144 0.123348
					CHANNELS 3 Zrotation Yrotation Xrotation
					End Site
					{
						OFFSET 0.000000 0.000000 0.000000
					}
				}
			}
		}
	}
	JOINT Spine
	{
		OFFSET -0.002533 0.108963 -0.026696
		CHANNELS 3 Zrotation Yrotation Xrotation
		JOINT Spine1
		{
			OFFSET 0.005487 0.135180 0.001092
			CHANNELS 3 Zrotation Yrotation Xrotation
			JOINT Spine2
			{
				OFFSET 0.001457 0.052922 0.025425
				CHANNELS 3 Zrotation Yrotation Xrotation
				JOINT Neck
				{
					OFFSET -0.002778 0.213870 -0.042857
					CHANNELS 3 Zrotation Yrotation Xrotation
					JOINT Head
					{
						OFFSET 0.005152 0.064970 0.051349
						CHANNELS 3 Zrotation Yrotation Xrotation
						End Site
						{
							OFFSET 0.000000 0.000000 0.000000
						}
					}
				}
				JOINT LeftShoulder
				{
					OFFSET 0.078845 0.121749 -0.034090
					CHANNELS 3 Zrotation Yrotation Xrotation
					JOINT LeftArm
					{
						OFFSET 0.090977 0.030469 -0.008868
						CHANNELS 3 Zrotation Yrotation Xrotation
						JOINT LeftForeArm
						{
							OFFSET 0.259612 -0.012772 -0.027456
							CHANNELS 3 Zrotation Yrotation Xrotation
							JOINT LeftHand
							{
								OFFSET 0.249234 0.008986 -0.001171
								CHANNELS 3 Zrotation Yrotation Xrotation
								End Site
								{
									OFFSET 0.000000 0.000000 0.000000
								}
							}
						}
					}
				}
				JOINT RightShoulder
				{
					OFFSET -0.081759 0.118833 -0.038615
					CHANNELS 3 Zrotation Yrotation Xrotation
					JOINT RightArm
					{
						OFFSET -0.096012 0.032551 -0.009143
						CHANNELS 3 Zrotation Yrotation Xrotation
						JOINT RightForeArm
						{
							OFFSET -0.253742 -0.013329 -0.021401
							CHANNELS 3 Zrotation Yrotation Xrotation
							JOINT RightHand
							{
								OFFSET -0.255298 0.007772 -0.005559
								CHANNELS 3 Zrotation Yrotation Xrotation
								End Site
								{
									OFFSET 0.000000 0.000000 0.000000
								}
							}
						}
					}
				}
			}
		}
	}
}
MOTION
Frames: 15
Frame Time: 0.050000
0.000000 0.922115 0.000000 2.780411 -0.768432 2.969090 5.202468 -0.660902 -12.515453 -4.033573 0.493407 13.478171 3.067554 6.205814 -0.946108 0.000000 0.000000 0.000000 0.919827 0.498057 -4.914936 2.514319 -0.023316 12.406634 -5.408595 -11.935823 -6.966640 0.000000 0.000000 0.000000 5.066470 -0.881868 9.380059 -2.575654 1.228825 1.325461 -1.518924 5.095329 6.345520 4.418163 -0.676604 -18.870834 0.000000 0.000000 0.000000 -23.825799 -14.828958 4.838567 -43.337132 -16.653226 1.000942 2.317172 -42.506048 0.322838 0.000000 0.000000 0.000000 19.819462 11.281718 5.927697 46.917810 18.146494 1.780448 -3.846701 35.969925 0.549538 0.000000 0.000000 0.000000 
-0.004079 0.919511 0.001329 2.314688 0.269149 2.902813 5.601110 -0.779213 -15.682899 -3.734150 0.383120 18.835805 3.174422 5.635150 -3.246151 0.000000 0.000000 0.000000 2.294084 0.360428 -3.588073 2.398114 -0.046076 11.264716 -5.748912 -12.799111 -8.429339 0.000000 0.000000 0.000000 5.848286 -0.885773 8.458130 -1.510223 0.700742 1.391766 -2.471626 5.950755 6.385459 4.667783 -0.645576 -18.833828 0.000000 0.000000 0.000000 -23.959266 -14.026457 3.771540 -43.862401 -15.198139 0.685661 -0.583638 -42.871181 1.242494 0.000000 0.000000 0.000000 19.690407 9.954925 5.625429 46.703532 17.388621 1.345359 -3.257094 35.819117 0.863007 0.000000 0.000000 0.000000 
-0.007259 0.918591 0.004179 1.885565 -0.571123 2.114873 6.738021 -0.737629 -19.968192 -4.388202 0.707866 28.988167 3.717025 7.303676 -1.870492 0.000000 0.000000 0.000000 2.084519 0.382164 -3.772578 3.565416 -0.248450 12.999036 -6.650329 -15.041388 -10.230230 0.000000 0.000000 0.000000 6.575709 -1.000134 9.192261 -2.052427 0.978676 -0.103408 -1.739600 7.088417 7.281630 4.375183 -0.442314 -18.646464 0.000000 0.000000 0.000000 -23.228984 -12.808000 2.918314 -44.651565 -13.913917 0.180702 -6.294895 -43.066542 3.405434 0.000000 0.000000 0.000000 18.491338 8.812590 5.021312 46.127398 16.408088 0.847049 0.217024 34.941423 1.899140 0.000000 0.000000 0.000000 
-0.009903 0.918003 0.010061 2.231290 -0.626580 1.047623 6.329468 -0.948960 -24.757412 -6.108035 1.554271 35.684446 4.442566 9.181670 -0.582299 0.000000 0.000000 0.000000 1.730525 0.204730 -2.199298 3.962693 -0.329682 13.715702 -6.345906 -13.933149 -10.697389 0.000000 0.000000 0.000000 5.966169 -0.937567 9.429552 -1.732823 0.824993 0.704726 -1.255473 7.888785 6.445808 3.221002 0.168947 -17.412824 0.000000 0.000000 0.000000 -24.567628 -10.955252 1.413898 -44.697604 -12.046368 -0.278940 -8.734395 -44.388947 4.345374 0.000000 0.000000 0.000000 18.202523 7.368568 4.331703 46.228292 14.923246 0.339172 2.234960 34.846900 2.542000 0.000000 0.000000 0.000000 
-0.012065 0.918405 0.019196 2.397624 -1.172356 -0.522523 5.022020 -1.318507 -28.124502 -7.053502 2.161844 38.126447 5.371321 11.286874 0.517257 0.000000 0.000000 0.000000 2.060575 -0.163657 0.984842 2.404873 0.020901 12.931599 -5.775560 -12.059391 -10.113091 0.000000 0.000000 0.000000 5.408031 -0.916605 10.252562 -1.576218 0.757348 0.212356 -0.686551 9.034454 6.330948 3.255382 0.086657 -16.223306 0.000000 0.000000 0.000000 -24.327713 -9.176784 0.101945 -45.251116 -9.933906 -0.981740 -12.721485 -45.223363 5.907860 0.000000 0.000000 0.000000 17.353147 6.359739 3.859237 46.836886 12.957178 -0.375592 3.408839 34.746693 2.944466 0.000000 0.000000 0.000000 
-0.014431 0.917880 0.031382 2.233685 -1.935829 -1.389044 4.050132 -1.619690 -30.721579 -7.116689 2.236470 36.592451 4.725726 10.173076 1.530300 0.000000 0.000000 0.000000 2.634340 -0.416065 2.965264 1.479284 0.236268 12.782433 -5.473193 -10.715402 -10.615211 0.000000 0.000000 0.000000 5.342303 -0.887708 10.291765 -1.642401 0.791090 0.493481 -0.505267 10.452741 6.426029 3.026650 0.181407 -15.033253 0.000000 0.000000 0.000000 -23.623459 -8.801753 -0.362993 -46.376902 -9.929606 -0.979582 -13.995386 -44.577482 6.167194 0.000000 0.000000 0.000000 17.421993 5.278768 3.509629 47.995680 12.516683 -0.568602 3.952477 33.540071 3.058556 0.000000 0.000000 0.000000 
-0.017089 0.915623 0.046861 1.754070 -2.847755 -2.188109 3.226853 -1.806682 -31.585889 -6.200294 1.662716 30.086382 4.294889 9.920616 4.585133 0.000000 0.000000 0.000000 3.364660 -0.719547 5.176421 0.973597 0.338339 12.130016 -5.379495 -10.181637 -10.565865 0.000000 0.000000 0.000000 5.447233 -0.880200 10.400192 -1.970261 0.955475 0.614323 -0.329940 11.303675 5.579571 3.176826 0.056775 -14.548823 0.000000 0.000000 0.000000 -23.300800 -8.010358 -0.897395 -45.700057 -9.363058 -1.105456 -15.111855 -42.782240 6.283275 0.000000 0.000000 0.000000 17.625827 3.723290 2.714710 48.934076 11.055926 -1.052406 5.131439 32.602018 3.298794 0.000000 0.000000 0.000000 
-0.019795 0.909522 0.066415 0.807015 -4.571072 -3.304812 3.965959 -1.411157 -30.967270 -5.044408 1.070077 21.252313 4.756097 11.012223 6.825622 0.000000 0.000000 0.000000 4.052698 -0.977048 6.998328 1.049462 0.406087 13.276636 -5.403697 -9.011522 -12.420660 0.000000 0.000000 0.000000 5.779191 -0.881823 10.575739 -1.981371 0.963940 0.398358 -0.522231 12.906696 6.018440 3.775810 -0.424007 -13.260563 0.000000 0.000000 0.000000 -22.678365 -7.551741 -1.300900 -45.982348 -9.706051 -1.003030 -13.899439 -42.105568 5.592463 0.000000 0.000000 0.000000 17.808599 2.583434 2.284808 50.147025 10.910479 -1.157461 4.458242 31.820480 3.094466 0.000000 0.000000 0.000000 
-0.022321 0.900541 0.091003 0.161046 -6.526119 -4.153244 4.484568 -1.047407 -29.442522 -3.461884 0.507113 11.899790 4.605850 10.852364 8.713946 0.000000 0.000000 0.000000 4.468986 -1.281453 9.408545 0.548575 0.592131 13.981865 -5.459409 -7.302207 -14.828868 0.000000 0.000000 0.000000 6.146344 -0.839765 10.215229 -2.521240 1.231597 0.293743 -0.588876 13.485465 6.382943 4.038074 -0.650276 -13.084372 0.000000 0.000000 0.000000 -22.086379 -5.901101 -1.953749 -45.512069 -10.327007 -0.892281 -12.777053 -40.995930 5.077247 0.000000 0.000000 0.000000 18.440372 1.542988 1.660854 50.742336 9.532887 -1.768373 6.266306 32.588364 3.696273 0.000000 0.000000 0.000000 
-0.024073 0.890512 0.121441 -0.217958 -8.137789 -4.560218 5.722687 -0.548398 -27.338437 -3.226565 0.416024 3.794215 5.463121 12.162761 8.774719 0.000000 0.000000 0.000000 4.485462 -1.554285 12.007405 0.149091 0.755948 14.664460 -5.838316 -6.633485 -17.165176 0.000000 0.000000 0.000000 5.910478 -0.700248 8.958610 -2.640798 1.291375 0.286893 -0.823218 14.318053 6.290344 4.730866 -1.326539 -11.748209 0.000000 0.000000 0.000000 -22.643889 -5.900996 -2.072263 -44.665933 -10.989692 -0.589070 -10.491370 -38.560335 4.003274 0.000000 0.000000 0.000000 20.076624 -0.829767 0.395977 50.333803 8.409503 -2.324938 9.525692 32.589110 4.647769 0.000000 0.000000 0.000000 
-0.024419 0.881717 0.156854 -0.726215 -8.399212 -6.083433 5.888463 -0.465355 -25.483000 -2.273201 0.286973 0.389511 4.311400 10.512154 11.166276 0.000000 0.000000 0.000000 4.457517 -2.041475 16.788428 -0.334435 0.775316 13.383681 -5.752133 -5.637242 -18.058697 0.000000 0.000000 0.000000 5.619430 -0.637654 8.805770 -2.590802 1.249168 -0.418617 -0.875430 13.430324 7.456517 5.040479 -1.784890 -10.893019 0.000000 0.000000 0.000000 -22.496864 -6.493419 -1.335382 -43.772944 -12.624477 -0.214318 -7.139220 -36.388154 2.855039 0.000000 0.000000 0.000000 21.011720 -1.769961 -0.375162 50.793514 6.948031 -3.030847 10.670729 33.625082 5.121520 0.000000 0.000000 0.000000 
-0.022745 0.874784 0.195516 -0.998408 -9.069764 -6.605661 6.145362 -0.346245 -25.839949 -2.656500 0.332990 2.360984 4.128228 10.387623 13.013802 0.000000 0.000000 0.000000 4.049677 -2.234050 19.829622 -0.905374 0.852839 12.659142 -5.645264 -4.603548 -18.522901 0.000000 0.000000 0.000000 5.621433 -0.522927 7.490799 -3.013403 1.438103 -0.939750 -0.907333 12.742145 8.950345 6.070505 -2.845766 -9.701157 0.000000 0.000000 0.000000 -22.003351 -6.609764 -0.796252 -43.627523 -14.771995 0.281865 -5.265661 -34.767951 2.293453 0.000000 0.000000 0.000000 21.291075 -2.419635 -0.997677 51.513491 5.331822 -3.793859 13.483625 34.669643 6.138656 0.000000 0.000000 0.000000 
-0.018855 0.872246 0.235187 -1.143301 -9.700451 -5.829318 5.849225 -0.380599 -26.607611 -2.537647 0.318096 5.495475 3.947085 10.297933 15.177067 0.000000 0.000000 0.000000 3.327401 -2.151242 20.812926 -1.497935 1.024168 13.164313 -5.073815 -2.945970 -17.390176 0.000000 0.000000 0.000000 5.147303 -0.382995 5.699945 -2.880274 1.363347 -1.071155 -0.787504 12.025877 9.595693 6.640880 -3.154285 -10.813966 0.000000 0.000000 0.000000 -22.080985 -7.146858 -0.127850 -43.229778 -16.948107 0.885508 -2.707748 -34.048663 1.603775 0.000000 0.000000 0.000000 21.141590 -3.226923 -1.757776 51.552533 3.011149 -4.702917 15.458030 36.382642 7.061176 0.000000 0.000000 0.000000 
-0.013083 0.872346 0.274191 -1.037923 -11.206674 -5.117787 6.002812 -0.207751 -27.755910 -3.435345 0.578317 9.861626 4.880042 11.598103 16.120044 0.000000 0.000000 0.000000 1.948627 -1.806255 21.300899 -2.004731 1.297044 14.753944 -4.518690 -2.962417 -14.155928 0.000000 0.000000 0.000000 5.269954 -0.308227 4.570949 -3.145775 1.469838 -1.384347 -1.144878 11.154444 9.884464 6.420351 -3.081431 -11.219509 0.000000 0.000000 0.000000 -22.195619 -7.080440 0.363164 -42.358550 -20.161134 1.787051 -0.073065 -33.409383 0.946036 0.000000 0.000000 0.000000 20.527883 -2.676801 -1.846062 51.311022 1.154312 -5.354244 16.375022 36.541107 7.209330 0.000000 0.000000 0.000000 
-0.006214 0.875557 0.313042 -0.455648 -12.671354 -4.097857 5.860745 -0.119380 -28.161363 -4.353296 0.901933 11.960768 4.986067 11.612345 16.611619 0.000000 0.000000 0.000000 0.364746 -1.350277 21.046135 -2.098577 1.457294 15.896179 -3.916772 -3.673432 -10.003259 0.000000 0.000000 0.000000 4.574557 -0.270295 4.053570 -3.198149 1.462406 -1.869988 -1.391778 11.503374 9.778062 6.496728 -3.066481 -11.836893 0.000000 0.000000 0.000000 -21.781813 -7.765731 0.946953 -42.287897 -22.516250 2.541179 3.092929 -35.193727 0.045021 0.000000 0.000000 0.000000 19.866477 -2.931967 -2.088698 51.509382 -0.590462 -6.011001 16.451270 36.627666 7.191038 0.000000 0.000000 0.000000 
